<?xml version="1.0" encoding="UTF-8"?>
<svg xmlns="http://www.w3.org/2000/svg" viewBox="0 0 64 64" width="512" height="512"><g id="avatar-user-girl-people-woman"><path d="M38,16l-2-3-2,3H30l-2-3-2,3H20v9c0,.34.01.67.04,1a12.932,12.932,0,0,0,.2,1.41v.01c.04.18.08.35.13.52A11.966,11.966,0,0,0,28,36.31a11.939,11.939,0,0,0,8,0,11.966,11.966,0,0,0,7.63-8.37c.05-.17.09-.34.13-.52v-.01a12.932,12.932,0,0,0,.2-1.41c.03-.33.04-.66.04-1V16Z" style="fill:#ffc477"/><path d="M44,16v9c0,.34-.01.67-.04,1a12.932,12.932,0,0,1-.2,1.41v.01c-.04.18-.08.35-.13.52A11.966,11.966,0,0,1,36,36.31,11.8,11.8,0,0,1,32,37a12,12,0,0,1-2-.17,11.082,11.082,0,0,0,2-.52,11.966,11.966,0,0,0,7.63-8.37c.05-.17.09-.34.13-.52v-.01a12.932,12.932,0,0,0,.2-1.41c.03-.33.04-.66.04-1V16Z" style="fill:#ffa733"/><path d="M49,6v4a2.006,2.006,0,0,1-2,2H43.62A12.058,12.058,0,0,0,43,10.19V8a2.006,2.006,0,0,1,2-2Z" style="fill:#ff7956"/><path d="M49,6v4a2.006,2.006,0,0,1-2,2H43.62l-.03-.09A2,2,0,0,0,45,10V6Z" style="fill:#ff5023"/><path d="M21,8v2.19A12.058,12.058,0,0,0,20.38,12H17a2.006,2.006,0,0,1-2-2V6h4A2.006,2.006,0,0,1,21,8Z" style="fill:#ff7956"/><path d="M57,20V32H51a8.008,8.008,0,0,1-7.24-4.58v-.01a12.932,12.932,0,0,0,.2-1.41H44a4,4,0,1,0,0-8V15a11.858,11.858,0,0,0-.38-3H49A8,8,0,0,1,57,20Z" style="fill:#ffd422"/><path d="M57,20V32H53V20a8,8,0,0,0-8-8h4A8,8,0,0,1,57,20Z" style="fill:#ebbf00"/><path d="M55,52.17V61H42a5,5,0,0,0,.85-9.93,1,1,0,0,1-.85-.98V42.58l7.04,1.85A8,8,0,0,1,55,52.17Z" style="fill:#ffc477"/><path d="M55,52.17V61H51V52.17a8,8,0,0,0-5.96-7.74L42,43.63V42.58l7.04,1.85A8,8,0,0,1,55,52.17Z" style="fill:#ffa733"/><path d="M46.83,19.17A4,4,0,0,1,44,26h-.04c.03-.33.04-.66.04-1V18A4.025,4.025,0,0,1,46.83,19.17Z" style="fill:#ffc477"/><path d="M42.85,51.07A5,5,0,0,1,42,61H22a5,5,0,0,1-.85-9.93,1,1,0,0,0,.85-.98V42.58L28,41v5a4,4,0,1,0,8,0V41l6,1.58v7.51A1,1,0,0,0,42.85,51.07Z" style="fill:#a78966"/><path d="M47,56a5,5,0,0,1-5,5H38a5,5,0,0,0,.85-9.93,1,1,0,0,1-.85-.98V42.58l-2-.53V41l6,1.58v7.51a1,1,0,0,0,.85.98A5.007,5.007,0,0,1,47,56Z" style="fill:#806749"/><path d="M44,15v1H38l-2-3-2,3H30l-2-3-2,3H20V15a11.858,11.858,0,0,1,.38-3,11.993,11.993,0,0,1,23.24,0A11.858,11.858,0,0,1,44,15Z" style="fill:#ffd422"/><path d="M44,15v1H40V15a11.858,11.858,0,0,0-.38-3,11.908,11.908,0,0,0-3.13-5.49,11.928,11.928,0,0,0-6.47-3.34A11.668,11.668,0,0,1,32,3,12,12,0,0,1,44,15Z" style="fill:#ebbf00"/><path d="M36,41v5a4,4,0,0,1-8,0V36.31a11.939,11.939,0,0,0,8,0Z" style="fill:#ffc477"/><path d="M22,42.58v7.51a1,1,0,0,1-.85.98A5,5,0,0,0,22,61H9V52.17a8,8,0,0,1,5.96-7.74Z" style="fill:#ffc477"/><path d="M17,12h3.38A11.858,11.858,0,0,0,20,15v3a4,4,0,0,0,0,8h.04a12.932,12.932,0,0,0,.2,1.41v.01A8.008,8.008,0,0,1,13,32H7V20a8,8,0,0,1,8-8Z" style="fill:#ffd422"/><path d="M20.04,26H20a4,4,0,1,1,0-8v7C20,25.34,20.01,25.67,20.04,26Z" style="fill:#ffc477"/><path d="M26,21a3,3,0,0,0-3,3h2a1,1,0,0,1,2,0h2A3,3,0,0,0,26,21Z"/><path d="M38,21a3,3,0,0,0-3,3h2a1,1,0,0,1,2,0h2A3,3,0,0,0,38,21Z"/><path d="M49.8,11.04A2.96,2.96,0,0,0,50,10V6a1,1,0,0,0-1-1H45a2.986,2.986,0,0,0-2.8,1.96,12.968,12.968,0,0,0-20.4,0A2.986,2.986,0,0,0,19,5H15a1,1,0,0,0-1,1v4a2.96,2.96,0,0,0,.2,1.04A9.012,9.012,0,0,0,6,20V32a1,1,0,0,0,1,1h6a9.057,9.057,0,0,0,6.91-3.26A13.087,13.087,0,0,0,27,37v3.23L14.7,43.46A9.03,9.03,0,0,0,8,52.17V61a1,1,0,0,0,1,1H55a1,1,0,0,0,1-1V52.17a9.028,9.028,0,0,0-6.71-8.71L37,40.23V37a13.087,13.087,0,0,0,7.09-7.26A9.057,9.057,0,0,0,51,33h6a1,1,0,0,0,1-1V20A9.012,9.012,0,0,0,49.8,11.04ZM13,31H8V20a7.008,7.008,0,0,1,7-7h4.17A13.161,13.161,0,0,0,19,15v2.1a4.989,4.989,0,0,0,.16,9.81c.01.11.03.21.04.31A6.923,6.923,0,0,1,13,31Zm6-11.82v5.64a3,3,0,0,1-1.13-4.94A3.1,3.1,0,0,1,19,19.18Zm1-9.17c-.14.32-.25.65-.36.99H17a1,1,0,0,1-1-1V7h3a1,1,0,0,1,1,1ZM10,60V52.17a7.008,7.008,0,0,1,5.21-6.77L21,43.88l-.02,6.2A5.995,5.995,0,0,0,17.54,60ZM43,43.87l5.78,1.53A7.006,7.006,0,0,1,54,52.17V60H46.46A5.984,5.984,0,0,0,43,50.09Zm-2-.52v6.74a2,2,0,0,0,1.68,1.97A4,4,0,0,1,42,60H22a4,4,0,0,1-.69-7.94A2,2,0,0,0,23,50.09V43.35l4-1.05V46a5,5,0,0,0,10,0V42.3ZM29,46V37.64a12.68,12.68,0,0,0,6,0V46a3,3,0,0,1-6,0ZM43,25a11,11,0,0,1-22,0V17h5a1,1,0,0,0,.83-.45L28,14.8l1.17,1.75A1,1,0,0,0,30,17h4a1,1,0,0,0,.83-.45L36,14.8l1.17,1.75A1,1,0,0,0,38,17h5ZM38.54,15l-1.71-2.55a1.03,1.03,0,0,0-1.66,0L33.46,15H30.54l-1.71-2.55a1.03,1.03,0,0,0-1.66,0L25.46,15H21a11,11,0,0,1,22,0Zm5.82-4c-.11-.34-.22-.67-.36-.99V8a1,1,0,0,1,1-1h3v3a1,1,0,0,1-1,1ZM56,31H51a6.923,6.923,0,0,1-6.2-3.78c.01-.1.03-.2.04-.31a4.984,4.984,0,0,0,2.69-8.45A5.068,5.068,0,0,0,45,17.1V15a13.161,13.161,0,0,0-.17-2H49a7.008,7.008,0,0,1,7,7ZM45,24.81V19.18a3.179,3.179,0,0,1,1.12.69A3.03,3.03,0,0,1,47,22,2.994,2.994,0,0,1,45,24.81Z"/><path d="M32,31a1,1,0,0,1-1-1H29a3,3,0,0,0,6,0H33A1,1,0,0,1,32,31Z"/></g></svg>
