<?xml version="1.0" encoding="UTF-8"?>
<svg xmlns="http://www.w3.org/2000/svg" viewBox="0 0 64 64" width="512" height="512"><g id="woman-girl-avatar-user-female"><path d="M32,13,20,18v7c0,.34.01.67.04,1a11.4,11.4,0,0,0,.33,1.94A11.966,11.966,0,0,0,28,36.31a11.939,11.939,0,0,0,8,0,11.966,11.966,0,0,0,7.63-8.37A11.4,11.4,0,0,0,43.96,26c.03-.33.04-.66.04-1V18Z" style="fill:#ffc477"/><path d="M44,18v7c0,.34-.01.67-.04,1a11.4,11.4,0,0,1-.33,1.94A11.966,11.966,0,0,1,36,36.31,11.8,11.8,0,0,1,32,37a12,12,0,0,1-2-.17,11.082,11.082,0,0,0,2-.52,11.966,11.966,0,0,0,7.63-8.37A11.4,11.4,0,0,0,39.96,26c.03-.33.04-.66.04-1V18L30,13.83,32,13Z" style="fill:#ffa733"/><path d="M54.49,22.63a6.985,6.985,0,0,1-.35,11A7.007,7.007,0,0,1,48,44l-.04.15L36,41V36.31a11.966,11.966,0,0,0,7.63-8.37A11.4,11.4,0,0,0,43.96,26H44a4,4,0,1,0,0-8L32,13,20,18a4,4,0,0,0,0,8h.04a11.4,11.4,0,0,0,.33,1.94A11.966,11.966,0,0,0,28,36.31V41L16.04,44.15,16,44A7.007,7.007,0,0,1,9.86,33.63a6.985,6.985,0,0,1-.35-11A7.006,7.006,0,0,1,16,13a5.657,5.657,0,0,1,1.01.08A10,10,0,0,1,28.32,3.51L32,4l3.68-.49a10,10,0,0,1,11.31,9.57A5.657,5.657,0,0,1,48,13a7.006,7.006,0,0,1,6.49,9.63Z" style="fill:#ffd422"/><path d="M54.14,33.63A7.007,7.007,0,0,1,48,44l-.04.15-1.82-.48a7.014,7.014,0,0,0,4-10.04,6.985,6.985,0,0,0,.35-11A7.006,7.006,0,0,0,44,13a5.657,5.657,0,0,0-1.01.08,10.02,10.02,0,0,0-8.03-9.47l.72-.1a10,10,0,0,1,11.31,9.57A5.657,5.657,0,0,1,48,13a7.006,7.006,0,0,1,6.49,9.63,6.985,6.985,0,0,1-.35,11Z" style="fill:#ebbf00"/><path d="M9,61V52.17a8,8,0,0,1,5.96-7.74l1.08-.28L28,41V36.31a11.939,11.939,0,0,0,8,0V41l11.96,3.15,1.08.28A8,8,0,0,1,55,52.17V61Z" style="fill:#ffc477"/><path d="M55,52.17V61H51V52.17a8,8,0,0,0-5.96-7.74l-1.08-.28L32,41V37a11.8,11.8,0,0,0,4-.69V41l11.96,3.15,1.08.28A8,8,0,0,1,55,52.17Z" style="fill:#ffa733"/><path d="M46.83,19.17A4,4,0,0,1,44,26h-.04c.03-.33.04-.66.04-1V18A4.025,4.025,0,0,1,46.83,19.17Z" style="fill:#ffc477"/><path d="M47,57a7.851,7.851,0,0,1-1.08,4H18.08A7.851,7.851,0,0,1,17,57a8,8,0,0,1,15-3.87A8,8,0,0,1,47,57Z" style="fill:#bb7fd9"/><path d="M47,57a7.851,7.851,0,0,1-1.08,4h-4A7.851,7.851,0,0,0,43,57a8.006,8.006,0,0,0-5.99-7.75A8.157,8.157,0,0,1,39,49,8,8,0,0,1,47,57Z" style="fill:#933ec5"/><path d="M20.04,26H20a4,4,0,1,1,0-8v7C20,25.34,20.01,25.67,20.04,26Z" style="fill:#ffc477"/><path d="M26,21a3,3,0,0,0-3,3h2a1,1,0,0,1,2,0h2A3,3,0,0,0,26,21Z"/><path d="M38,21a3,3,0,0,0-3,3h2a1,1,0,0,1,2,0h2A3,3,0,0,0,38,21Z"/><path d="M56,37a7.9,7.9,0,0,0-.62-3.09,7.983,7.983,0,0,0,.27-11.57A8,8,0,0,0,48,12h-.09A11,11,0,0,0,35.55,2.52L32,2.99l-3.55-.47A11,11,0,0,0,16.09,12H16A8,8,0,0,0,8.35,22.34a7.983,7.983,0,0,0,.27,11.57A7.9,7.9,0,0,0,8,37a8,8,0,0,0,4.69,7.27A9.025,9.025,0,0,0,8,52.17V61a1,1,0,0,0,1,1H55a1,1,0,0,0,1-1V52.17a9.025,9.025,0,0,0-4.69-7.9A8,8,0,0,0,56,37ZM45.31,60H18.69a6.991,6.991,0,0,1,12.43-6.39,1.047,1.047,0,0,0,1.76,0A6.991,6.991,0,0,1,45.31,60ZM54,52.17V60H47.47A8.993,8.993,0,0,0,32,51.34,8.987,8.987,0,0,0,16.53,60H10V52.17a7.019,7.019,0,0,1,5.21-6.77l13.04-3.43A1.014,1.014,0,0,0,29,41V37.64a12.68,12.68,0,0,0,6,0V41a1.014,1.014,0,0,0,.75.97L48.78,45.4A7.017,7.017,0,0,1,54,52.17ZM21,25V18.67l11-4.59,11,4.59V25a11,11,0,0,1-22,0ZM48,43v.12L37,40.23V37a13.017,13.017,0,0,0,7.84-10.09,4.975,4.975,0,0,0-.58-9.88L32.38,12.08a.916.916,0,0,0-.76,0L19.74,17.03a4.977,4.977,0,0,0-.58,9.88A13.017,13.017,0,0,0,27,37v3.23L16,43.12V43a6,6,0,0,1-6-6,5.919,5.919,0,0,1,.74-2.89,1.012,1.012,0,0,0-.29-1.29,5.981,5.981,0,0,1-.3-9.42,1.02,1.02,0,0,0,.29-1.15A5.934,5.934,0,0,1,10,20a6,6,0,0,1,6-6,4.955,4.955,0,0,1,.83.06.993.993,0,0,0,.81-.2,1.028,1.028,0,0,0,.37-.75A9,9,0,0,1,28.19,4.5l3.68.49a1.13,1.13,0,0,0,.26,0l3.68-.49a9,9,0,0,1,10.18,8.61.991.991,0,0,0,1.18.95A4.955,4.955,0,0,1,48,14a6,6,0,0,1,6,6,5.934,5.934,0,0,1-.44,2.25,1.02,1.02,0,0,0,.29,1.15,5.981,5.981,0,0,1-.3,9.42,1.012,1.012,0,0,0-.29,1.29A5.919,5.919,0,0,1,54,37,6,6,0,0,1,48,43ZM45,24.81V19.18a3.179,3.179,0,0,1,1.12.69A3.03,3.03,0,0,1,47,22,2.994,2.994,0,0,1,45,24.81ZM19,19.18v5.64a3,3,0,0,1-1.13-4.94A3.1,3.1,0,0,1,19,19.18Z"/><path d="M32,31a1,1,0,0,1-1-1H29a3,3,0,0,0,6,0H33A1,1,0,0,1,32,31Z"/></g></svg>
