<svg height="512" viewBox="0 0 64 64" width="512" xmlns="http://www.w3.org/2000/svg"><g id="avatar-girl-woman-people-user"><path d="m32 13-12 4v8c0 .34.01.67.04 1a11.4 11.4 0 0 0 .33 1.94 11.966 11.966 0 0 0 7.63 8.37 12.067 12.067 0 0 0 11.46-1.9v-.01a11.971 11.971 0 0 0 4.17-6.46 11.4 11.4 0 0 0 .33-1.94c.03-.33.04-.66.04-1v-8z" fill="#ffc477"/><path d="m44 17v8c0 .34-.01.67-.04 1a11.4 11.4 0 0 1 -.33 1.94 11.971 11.971 0 0 1 -4.17 6.46v.01a12 12 0 0 1 -9.46 2.42 11.082 11.082 0 0 0 2-.52 11.891 11.891 0 0 0 3.46-1.9v-.01a11.971 11.971 0 0 0 4.17-6.46 11.4 11.4 0 0 0 .33-1.94c.03-.33.04-.66.04-1v-8l-10-3.33 2-.67z" fill="#ffa733"/><path d="m55 52.17v8.83h-13a5 5 0 0 0 0-10l10.06-5.03a7.974 7.974 0 0 1 2.94 6.2z" fill="#ffc477"/><path d="m55 52.17v8.83h-4v-8.83a7.947 7.947 0 0 0 -1.64-4.85l2.7-1.35a7.974 7.974 0 0 1 2.94 6.2z" fill="#ffa733"/><path d="m52.06 45.97-10.06 5.03a5 5 0 0 1 0 10h-20a5 5 0 0 1 0-10l-10.06-5.03a8.011 8.011 0 0 1 3.02-1.54l8.43-2.22 8.61 4.79 8.61-4.79 8.43 2.22a8.011 8.011 0 0 1 3.02 1.54z" fill="#ff3051"/><path d="m47 56a5 5 0 0 1 -5 5h-4a5 5 0 0 0 0-10l10.06-5.03a8.011 8.011 0 0 0 -3.02-1.54l-5.72-1.51 1.29-.71 8.43 2.22a8.011 8.011 0 0 1 3.02 1.54l-10.06 5.03a5 5 0 0 1 5 5z" fill="#cd2a00"/><path d="m49.78 29.12a2.978 2.978 0 0 1 0 5.76 3 3 0 0 1 -5.28 2.77 3 3 0 0 1 -5.5-1.65 2.96 2.96 0 0 1 .46-1.59v-.01a11.971 11.971 0 0 0 4.17-6.46 11.4 11.4 0 0 0 .33-1.94h.04a4.039 4.039 0 0 0 2.61-.97 2.561 2.561 0 0 1 .39-.03 2.994 2.994 0 0 1 2.78 4.12z" fill="#ffd422"/><path d="m49.78 34.88a2.995 2.995 0 0 1 -4.78 3.35 2.94 2.94 0 0 0 1-2.23 2.981 2.981 0 0 0 -.22-1.12 2.978 2.978 0 0 0 0-5.76 2.981 2.981 0 0 0 .22-1.12 2.925 2.925 0 0 0 -.92-2.15 4.121 4.121 0 0 0 1.53-.82 2.561 2.561 0 0 1 .39-.03 2.994 2.994 0 0 1 2.78 4.12 2.978 2.978 0 0 1 0 5.76z" fill="#ebbf00"/><path d="m48 19v3a3.995 3.995 0 0 0 -4-4v-1l-12-4-12 4v1a3.995 3.995 0 0 0 -4 4v-3a16 16 0 1 1 32 0z" fill="#ffd422"/><path d="m48 19v3a3.995 3.995 0 0 0 -4-4v-1l-.14-.05a15.931 15.931 0 0 0 -13.88-13.82 15.009 15.009 0 0 1 2.02-.13 15.979 15.979 0 0 1 16 16z" fill="#ebbf00"/><g fill="#ffc477"><path d="m46.83 19.17a4 4 0 0 1 -2.83 6.83h-.04c.03-.33.04-.66.04-1v-7a4.025 4.025 0 0 1 2.83 1.17z"/><path d="m40.61 42.21-8.61 4.79-8.61-4.79 4.61-1.21v-4.69a11.939 11.939 0 0 0 8 0v4.69z"/><path d="m11.94 45.97 10.06 5.03a5 5 0 0 0 0 10h-13v-8.83a7.974 7.974 0 0 1 2.94-6.2z"/><path d="m20.04 26h-.04a4 4 0 1 1 0-8v7c0 .34.01.67.04 1z"/></g><path d="m26 21a3 3 0 0 0 -3 3h2a1 1 0 0 1 2 0h2a3 3 0 0 0 -3-3z"/><path d="m38 23a1 1 0 0 1 1 1h2a3 3 0 0 0 -6 0h2a1 1 0 0 1 1-1z"/><path d="m49.29 43.46-12.29-3.23v-3.23c.36-.15.71-.32 1.05-.5a3.982 3.982 0 0 0 6.45 2.62 4 4 0 0 0 6.5-3.12 3.153 3.153 0 0 0 -.04-.53 3.971 3.971 0 0 0 0-6.94 3.153 3.153 0 0 0 .04-.53 4.032 4.032 0 0 0 -2.57-3.72 5.03 5.03 0 0 0 .57-2.28v-3a17 17 0 0 0 -34 0v3a4.993 4.993 0 0 0 4.16 4.91 13.017 13.017 0 0 0 7.84 10.09v3.23l-12.3 3.23a9.03 9.03 0 0 0 -6.7 8.71v8.83a1 1 0 0 0 1 1h46a1 1 0 0 0 1-1v-8.83a9.028 9.028 0 0 0 -6.71-8.71zm-.29-15.46a2.006 2.006 0 0 1 -.15.75 1.021 1.021 0 0 0 .04.82.993.993 0 0 0 .63.52 1.972 1.972 0 0 1 0 3.82.993.993 0 0 0 -.63.52 1.021 1.021 0 0 0 -.04.82 2 2 0 0 1 -3.52 1.85 1.03 1.03 0 0 0 -1.66 0 2 2 0 0 1 -3.67-1.1 1.977 1.977 0 0 1 .27-.98 12.969 12.969 0 0 0 4.57-8.11 4.845 4.845 0 0 0 2.12-.9 1.981 1.981 0 0 1 2.04 1.99zm-4-3.19v-5.63a3.179 3.179 0 0 1 1.12.69 3.03 3.03 0 0 1 .88 2.13 2.994 2.994 0 0 1 -2 2.81zm-26 .01a3 3 0 0 1 -1.13-4.94 3.1 3.1 0 0 1 1.13-.7zm0-7.82v.1a5.134 5.134 0 0 0 -1.95.88 14.984 14.984 0 0 1 29.9 0 5.134 5.134 0 0 0 -1.95-.88v-.1a1.014 1.014 0 0 0 -.68-.95l-12-4a1 1 0 0 0 -.64 0l-12 4a1.014 1.014 0 0 0 -.68.95zm2 8v-7.28l11-3.67 11 3.67v7.28a11 11 0 0 1 -22 0zm7.25 16.97a1.014 1.014 0 0 0 .75-.97v-3.36a12.68 12.68 0 0 0 6 0v3.36a1.014 1.014 0 0 0 .75.97l2.2.58-5.95 3.31-5.95-3.31zm-10.71 18.03h-7.54v-7.83a7.016 7.016 0 0 1 2.11-5l7.07 3.54a5.98 5.98 0 0 0 -1.64 9.29zm24.46 0h-20a4 4 0 0 1 0-8 1 1 0 0 0 .45-1.89l-8.48-4.24a6.877 6.877 0 0 1 1.24-.47l8.05-2.12 8.25 4.59a.988.988 0 0 0 .98 0l8.25-4.59 8.04 2.12a6.7 6.7 0 0 1 1.25.47l-8.48 4.24a1 1 0 0 0 .45 1.89 4 4 0 0 1 0 8zm12 0h-7.54a5.98 5.98 0 0 0 -1.64-9.29l7.07-3.54a7.016 7.016 0 0 1 2.11 5z"/><path d="m35 30h-2a1 1 0 0 1 -2 0h-2a3 3 0 0 0 6 0z"/></g></svg>